#!OML:ASF E:\Steps\Project 1\Capture day 1\Session 2\Subject.ASF
:FULLY-SPECIFIED
:DEGREES
82
root 16.7092 19.6819 20.7794 -153.605 -4.54607 177.336
lowerback -29.4195 -2.17191 -7.19895
upperback -1.20879 -1.07355 0.0602092
thorax 14.2655 -1.20522 3.49509
lowerneck -5.36252 -0.104351 -1.1985
upperneck 3.69794 -0.183168 2.46391
head 2.08767 -0.0468784 0.979508
rclavicle -6.4605e-016 6.36111e-015
rhumerus -37.8254 -21.5851 -75.8552
rradius 30.9958
rwrist -1.36479
rhand -7.86158 -51.5205
rfingers 7.12502
rthumb 18.042 -80.7037
lclavicle -6.4605e-016 6.36111e-015
lhumerus -32.0368 5.93179 79.8156
lradius 22.8917
lwrist -5.07468
lhand -20.171 -12.1163
lfingers 7.12502
lthumb 6.17473 17.7738
rfemur -23.4093 5.87761 20.3194
rtibia 7.32778
rfoot -19.5283 -5.6253
rtoes -18.8782
lfemur -25.1562 -8.0481 -21.598
ltibia 9.83115
lfoot -7.60588 1.14298
ltoes -32.1355
83
root 16.7136 19.683 20.7827 -153.649 -4.49722 177.304
lowerback -29.3016 -2.08457 -7.24006
upperback -1.21552 -0.940998 -0.036678
thorax 14.1861 -1.1431 3.46641
lowerneck -5.28643 0.0187477 -1.1077
upperneck 4.0027 -0.0363342 2.50472
head 2.17092 0.0284458 0.983578
rclavicle 1.83876e-015 3.8763e-014
rhumerus -37.9692 -21.8415 -75.8565
rradius 31.0733
rwrist -1.31133
rhand -7.82433 -51.6806
rfingers 7.12502
rthumb 18.0779 -80.8605
lclavicle 1.83876e-015 3.8763e-014
lhumerus -32.0087 5.52441 79.8118
lradius 22.8693
lwrist -4.93637
lhand -20.2408 -11.8902
lfingers 7.12502
lthumb 6.10737 18.0017
rfemur -23.4113 5.90396 20.2889
rtibia 7.35636
rfoot -19.1012 -5.763
rtoes -20.8906
lfemur -25.1554 -8.18513 -21.5927
ltibia 9.88395
lfoot -7.52154 1.31937
ltoes -30.4426
84
root 16.718 19.6836 20.7833 -153.733 -4.51999 177.309
lowerback -29.2235 -2.10446 -7.2455
upperback -1.14241 -0.955414 -0.0286502
thorax 14.238 -1.14765 3.47518
lowerneck -5.41847 0.219783 -0.988461
upperneck 4.22054 0.224422 2.40721
head 2.26105 0.159021 0.943218
rclavicle -1.05356e-014 -1.03368e-014
rhumerus -37.8785 -21.8026 -75.9528
rradius 31.148
rwrist -1.294
rhand -7.70252 -51.3344
rfingers 7.12502
rthumb 18.1951 -80.5034
lclavicle -1.05356e-014 -1.03368e-014
lhumerus -31.8637 5.63286 79.7481
lradius 22.7725
lwrist -5.05161
lhand -20.1773 -11.852
lfingers 7.12502
lthumb 6.16864 18.0382
rfemur -23.3174 5.9713 20.2945
rtibia 7.32715
rfoot -18.3128 -5.83992
rtoes -21.9204
lfemur -25.1228 -8.23313 -21.5601
ltibia 9.96818
lfoot -7.5996 1.32626
ltoes -30.2362
85
root 16.7229 19.6828 20.7865 -153.737 -4.60582 177.342
lowerback -29.2238 -2.14413 -7.22164
upperback -1.075 -1.00637 0.0118987
thorax 14.3241 -1.16946 3.48741
lowerneck -5.62212 0.42818 -0.861991
upperneck 4.36857 0.501571 2.23545
head 2.34182 0.296332 0.878886
rclavicle -7.1314e-015 5.56597e-015
rhumerus -37.7664 -21.7303 -76.0385
rradius 31.2387
rwrist -1.29523
rhand -7.47451 -50.9715
rfingers 7.12502
rthumb 18.4144 -80.12
lclavicle -7.1314e-015 5.56597e-015
lhumerus -31.7081 5.96339 79.6776
lradius 22.6508
lwrist -5.27181
lhand -20.139 -11.9775
lfingers 7.12502
lthumb 6.20561 17.9116
rfemur -23.356 6.06705 20.3371
rtibia 7.41067
rfoot -19.5277 -5.89956
rtoes -18.9796
lfemur -25.2243 -8.17879 -21.4898
ltibia 10.1016
lfoot -8.03743 1.19538
ltoes -34.6693
86
root 16.7271 19.6815 20.7906 -153.733 -4.70383 177.368
lowerback -29.1914 -2.13813 -7.18465
upperback -1.05224 -1.00797 0.0196455
thorax 14.3364 -1.16663 3.47645
lowerneck -5.6249 0.559675 -0.830801
upperneck 4.56069 0.668559 2.25499
head 2.4033 0.380589 0.88757
rclavicle -7.45443e-016 -4.96962e-015
rhumerus -37.7433 -21.9192 -75.9943
rradius 31.2112
rwrist -1.1371
rhand -7.31425 -50.8549
rfingers 7.12502
rthumb 18.5686 -79.9887
lclavicle -7.45443e-016 -4.96962e-015
lhumerus -31.6629 5.88039 79.7187
lradius 22.6096
lwrist -5.19739
lhand -20.2072 -12.1566
lfingers 7.12502
lthumb 6.13975 17.7344
rfemur -23.42 6.19495 20.3611
rtibia 7.49149
rfoot -19.2384 -6.04052
rtoes -20.0786
lfemur -25.3131 -8.17203 -21.422
ltibia 10.193
lfoot -7.59708 1.09111
ltoes -29.6484
87
root 16.7297 19.6801 20.7935 -153.772 -4.72183 177.374
lowerback -29.116 -2.11429 -7.17645
upperback -1.03908 -0.982161 0.0375976
thorax 14.3151 -1.1526 3.50394
lowerneck -5.58565 0.712691 -0.868039
upperneck 4.81193 0.865253 2.31456
head 2.47626 0.479176 0.922502
rclavicle 1.21259e-014 -1.8487e-014
rhumerus -37.7178 -21.9581 -75.9363
rradius 31.1806
rwrist -1.10726
rhand -7.2845 -50.8461
rfingers 7.12502
rthumb 18.5972 -79.9771
lclavicle 1.21259e-014 -1.8487e-014
lhumerus -31.6774 5.75237 79.7955
lradius 22.6313
lwrist -5.11286
lhand -20.2294 -12.1995
lfingers 7.12502
lthumb 6.11837 17.6922
rfemur -23.4327 6.17341 20.3786
rtibia 7.53607
rfoot -18.5351 -5.93294
rtoes -20.8085
lfemur -25.3184 -8.22119 -21.399
ltibia 10.2631
lfoot -7.62191 1.16099
ltoes -29.865
88
root 16.7324 19.6804 20.7991 -153.817 -4.79016 177.38
lowerback -28.9888 -2.1028 -7.15392
upperback -1.02866 -0.978904 0.045211
thorax 14.2689 -1.14607 3.50467
lowerneck -5.5825 0.900103 -0.909829
upperneck 5.14711 1.10861 2.33449
head 2.58322 0.599751 0.948796
rclavicle 1.21756e-015 3.91606e-014
rhumerus -37.6478 -21.9754 -75.9451
rradius 31.193
rwrist -1.10506
rhand -7.11102 -51.1025
rfingers 7.12502
rthumb 18.764 -80.2175
lclavicle 1.21756e-015 3.91606e-014
lhumerus -31.6498 5.84251 79.7733
lradius 22.6029
lwrist -5.22681
lhand -20.3018 -12.1641
lfingers 7.12502
lthumb 6.04848 17.7296
rfemur -23.4542 6.00575 20.463
rtibia 7.67155
rfoot -19.6969 -5.8742
rtoes -18.6478
lfemur -25.4026 -8.30504 -21.3578
ltibia 10.482
lfoot -8.1738 1.21276
ltoes -34.1008
89
root 16.7361 19.6826 20.8074 -153.857 -5.00197 177.429
lowerback -28.804 -2.09906 -7.06518
upperback -1.02213 -1.0097 0.0497304
thorax 14.1953 -1.14857 3.45434
lowerneck -5.52142 1.03848 -0.955297
upperneck 5.5122 1.27874 2.42473
head 2.69089 0.684608 0.995742
rclavicle -6.95746e-015 9.93923e-016
rhumerus -37.4991 -22.242 -75.9183
rradius 31.0409
rwrist -0.902923
rhand -6.97472 -51.2555
rfingers 7.12502
rthumb 18.8951 -80.3578
lclavicle -6.95746e-015 9.93923e-016
lhumerus -31.5817 5.72057 79.7986
lradius 22.5946
lwrist -5.13297
lhand -20.3916 -12.071
lfingers 7.12502
lthumb 5.96177 17.8251
rfemur -23.4505 6.05901 20.5738
rtibia 7.76238
rfoot -19.2849 -6.22718
rtoes -20.3596
lfemur -25.6089 -8.36491 -21.2389
ltibia 10.8781
lfoot -7.83263 1.09979
ltoes -30.2736
90
root 16.7407 19.6836 20.8138 -153.85 -5.15265 177.469
lowerback -28.7085 -2.105 -7.01079
upperback -1.01736 -1.04131 0.0797302
thorax 14.1614 -1.15688 3.44793
lowerneck -6.05498 0.903232 -0.842592
upperneck 6.99232 1.04267 2.38854
head 3.30225 0.566836 0.976603
rclavicle 4.67144e-015 -1.78906e-015
rhumerus -37.3648 -22.1529 -75.9761
rradius 30.9365
rwrist -0.977349
rhand -7.1388 -51.2576
rfingers 7.12502
rthumb 18.7373 -80.3751
lclavicle 4.67144e-015 -1.78906e-015
lhumerus -31.5775 5.52865 79.8974
lradius 22.6856
lwrist -4.91815
lhand -20.434 -11.9851
lfingers 7.12502
lthumb 5.9208 17.9122
rfemur -23.4461 6.07031 20.6516
rtibia 7.6884
rfoot -18.4273 -6.34185
rtoes -21.2872
lfemur -25.8523 -8.35217 -21.1539
ltibia 11.2638
lfoot -7.94581 1.02235
ltoes -31.5001
91
root 16.7453 19.6825 20.8166 -153.814 -5.19849 177.461
lowerback -28.734 -2.11089 -6.98495
upperback -0.981245 -1.04915 0.0796951
thorax 14.2161 -1.15919 3.43065
lowerneck -6.2198 0.233406 0.346516
upperneck 8.43624 0.106334 0.89329
head 3.8526 0.067084 0.237844
rclavicle -1.11071e-014 -3.37934e-015
rhumerus -37.2279 -21.8592 -76.1978
rradius 31.0153
rwrist -1.24062
rhand -7.33537 -51.3087
rfingers 7.12502
rthumb 18.5482 -80.4444
lclavicle -1.11071e-014 -3.37934e-015
lhumerus -31.5333 5.4292 79.93
lradius 22.7459
lwrist -4.8012
lhand -20.5496 -11.9097
lfingers 7.12502
lthumb 5.80922 17.9907
rfemur -23.4559 5.96615 20.6861
rtibia 7.60563
rfoot -19.5162 -6.21095
rtoes -18.6381
lfemur -25.9894 -8.41129 -21.1169
ltibia 11.4334
lfoot -8.43331 1.06891
ltoes -35.7618
92
root 16.7485 19.6812 20.8174 -153.831 -5.22672 177.464
lowerback -28.6834 -2.10451 -6.97082
upperback -0.933941 -1.04097 0.100137
thorax 14.2478 -1.15345 3.45035
lowerneck -6.40612 0.215795 0.662445
upperneck 9.002 0.0486435 0.663257
head 4.0914 0.0340776 0.103287
rclavicle 4.47266e-016 1.98785e-015
rhumerus -37.1108 -21.697 -76.3333
rradius 31.1615
rwrist -1.36261
rhand -7.23795 -51.4722
rfingers 7.12502
rthumb 18.642 -80.5989
lclavicle 4.47266e-016 1.98785e-015
lhumerus -31.4009 5.43987 79.9707
lradius 22.7022
lwrist -4.82161
lhand -20.5141 -11.8328
lfingers 7.12502
lthumb 5.84352 18.0666
rfemur -23.4697 5.88523 20.7449
rtibia 7.69583
rfoot -19.1655 -6.26228
rtoes -20.495
lfemur -25.9829 -8.55467 -21.0631
ltibia 11.4475
lfoot -7.9899 1.10738
ltoes -30.6139
93
root 16.7503 19.6812 20.818 -153.877 -5.28026 177.47
lowerback -28.6156 -2.07828 -6.91133
upperback -0.894175 -1.02076 0.0978012
thorax 14.2606 -1.13824 3.42563
lowerneck -6.38006 0.332792 0.830808
upperneck 9.35497 0.187134 0.503422
head 4.2133 0.0961036 0.0277133
rclavicle 3.65267e-015 1.78906e-014
rhumerus -37.1681 -21.4579 -76.4517
rradius 31.4487
rwrist -1.54546
rhand -7.16098 -51.9024
rfingers 7.12502
rthumb 18.716 -81.022
lclavicle 3.65267e-015 1.78906e-014
lhumerus -31.3179 5.42003 79.9931
lradius 22.6812
lwrist -4.8333
lhand -20.4447 -11.8551
lfingers 7.12502
lthumb 5.91046 18.0425
rfemur -23.4956 5.51061 20.8669
rtibia 7.8414
rfoot -18.4464 -6.04399
rtoes -22.2072
lfemur -25.9484 -8.60454 -21.0556
ltibia 11.4678
lfoot -7.9985 1.10669
ltoes -31.0849
94
root 16.753 19.6821 20.8214 -153.953 -5.32967 177.429
lowerback -28.5124 -2.05262 -6.92349
upperback -0.836089 -0.974526 0.0790676
thorax 14.275 -1.11485 3.43283
lowerneck -6.44284 0.463563 1.12698
upperneck 9.65047 0.351475 0.189575
head 4.33477 0.16984 -0.120939
rclavicle -4.94477e-015 7.35503e-015
rhumerus -37.207 -21.3621 -76.5372
rradius 31.6291
rwrist -1.52861
rhand -7.32561 -51.9975
rfingers 7.12502
rthumb 18.5576 -81.1323
lclavicle -4.94477e-015 7.35503e-015
lhumerus -31.2137 5.26911 80.045
lradius 22.6962
lwrist -4.73472
lhand -20.5044 -11.8404
lfingers 7.12502
lthumb 5.85287 18.0588
rfemur -23.5763 5.29917 20.8898
rtibia 8.14615
rfoot -19.7513 -5.88025
rtoes -19.559
lfemur -25.918 -8.54831 -21.1266
ltibia 11.559
lfoot -8.53979 1.03336
ltoes -35.7521
95
root 16.758 19.684 20.8267 -154.103 -5.37888 177.319
lowerback -28.2649 -2.06811 -7.03878
upperback -0.752125 -0.950499 0.0470756
thorax 14.2547 -1.10461 3.47619
lowerneck -6.48195 0.571809 1.3251
upperneck 9.92589 0.477517 0.049442
head 4.44488 0.229023 -0.196381
rclavicle 6.36111e-015 2.66371e-014
rhumerus -37.1218 -21.2789 -76.6836
rradius 31.6629
rwrist -1.45104
rhand -7.56973 -51.2424
rfingers 7.12502
rthumb 18.3228 -80.3994
lclavicle 6.36111e-015 2.66371e-014
lhumerus -31.0681 5.14793 80.0697
lradius 22.7242
lwrist -4.58817
lhand -20.3995 -11.8806
lfingers 7.12502
lthumb 5.95411 18.0158
rfemur -23.5638 5.42251 20.7669
rtibia 8.46081
rfoot -19.5062 -6.16265
rtoes -20.5643
lfemur -25.8391 -8.47822 -21.271
ltibia 11.7068
lfoot -8.0436 0.833437
ltoes -31.633
96
root 16.7638 19.6832 20.8313 -154.171 -5.4698 177.25
lowerback -28.0994 -2.07333 -7.07704
upperback -0.687101 -0.938763 0.0259656
thorax 14.2516 -1.09709 3.48289
lowerneck -6.3257 0.662069 1.22646
upperneck 10.0805 0.586619 0.166142
head 4.46908 0.280497 -0.133515
rclavicle 1.51822e-014 -1.25234e-014
rhumerus -37.1191 -20.9891 -76.8957
rradius 31.9375
rwrist -1.64574
rhand -7.69181 -51.0874
rfingers 7.12502
rthumb 18.2054 -80.2554
lclavicle 1.51822e-014 -1.25234e-014
lhumerus -30.9634 4.92838 80.1228
lradius 22.8244
lwrist -4.37156
lhand -20.3149 -11.9399
lfingers 7.12502
lthumb 6.03577 17.9541
rfemur -23.5347 5.48139 20.7096
rtibia 8.55548
rfoot -18.7656 -6.30344
rtoes -21.3928
lfemur -25.8542 -8.55491 -21.3168
ltibia 11.8648
lfoot -8.13505 0.764919
ltoes -31.4531
